# xmcd CD database file
#
# Track frame offsets:
#	183
#	33583
#	58458
#	67983
#	77533
#	101770
#	126208
#	139833
#
# Disc length: 2063 seconds
#
# Revision: 0
# Processed by: cddbd v1.5.2PL0 Copyright (c) Steve Scherf et al.
# Submitted via: CDex 1.51
#
DISCID=71080d08
DTITLE=Gerry Mulligan - The Best Of Vol. 2
DYEAR=1900
DGENRE=Jazz
TTITLE0=A Wee Bit Of Bopita
TTITLE1=Lady Chatterley's Mother
TTITLE2=Everything Happens To Me
TTITLE3=Bernie's Tune
TTITLE4=Blue Theme
TTITLE5=Chuggin'
TTITLE6=Out Of This World
TTITLE7=Night Walk
EXTD=
EXTT0=
EXTT1=
EXTT2=
EXTT3=
EXTT4=
EXTT5=
EXTT6=
EXTT7=
PLAYORDER=
